<svg width="24" height="24" viewBox="0 0 24 24" fill="none" xmlns="http://www.w3.org/2000/svg">
<g id="icon / camera">
<path id="Union" fill-rule="evenodd" clip-rule="evenodd" d="M9.25 2C8.94936 2 8.66467 2.13526 8.47477 2.36833L6.02488 5.375H3.2C2.34396 5.375 1.52765 5.723 0.929358 6.33489C0.331808 6.94602 0 7.77021 0 8.625V18.75C0 19.6048 0.331808 20.429 0.929358 21.0401C1.52765 21.652 2.34396 22 3.2 22H20.8C21.656 22 22.4723 21.652 23.0706 21.0401C23.6682 20.429 24 19.6048 24 18.75V8.625C24 7.77021 23.6682 6.94602 23.0706 6.33489C22.4723 5.723 21.656 5.375 20.8 5.375H17.9751L15.5252 2.36833C15.3353 2.13526 15.0506 2 14.75 2H9.25ZM7.27524 7.00667L9.72512 4H14.2749L16.7248 7.00667C16.9147 7.23974 17.1994 7.375 17.5 7.375H20.8C21.1109 7.375 21.4138 7.50111 21.6406 7.73313C21.8682 7.96591 22 8.28632 22 8.625V18.75C22 19.0887 21.8682 19.4091 21.6406 19.6419C21.4138 19.8739 21.1109 20 20.8 20H3.2C2.88908 20 2.58624 19.8739 2.35937 19.6419C2.13176 19.4091 2 19.0887 2 18.75V8.625C2 8.28632 2.13176 7.96591 2.35937 7.73313C2.58624 7.50111 2.88908 7.375 3.2 7.375H6.5C6.80064 7.375 7.08533 7.23974 7.27524 7.00667ZM9 13C9 11.3431 10.3431 10 12 10C13.6569 10 15 11.3431 15 13C15 14.6569 13.6569 16 12 16C10.3431 16 9 14.6569 9 13ZM12 8C9.23858 8 7 10.2386 7 13C7 15.7614 9.23858 18 12 18C14.7614 18 17 15.7614 17 13C17 10.2386 14.7614 8 12 8Z" fill="#1E1D21"/>
</g>
</svg>
