<svg width="24" height="24" viewBox="0 0 24 24" fill="none" xmlns="http://www.w3.org/2000/svg">
<g id="button / cart 24" clip-path="url(#clip0_717_873)">
<path id="Union" fill-rule="evenodd" clip-rule="evenodd" d="M1 0C0.447715 0 0 0.467181 0 1.04348C0 1.61978 0.447715 2.08696 1 2.08696H4.18031L5.01195 6.42269C5.01638 6.45238 5.02201 6.48166 5.02879 6.51047L6.69933 15.2198C6.83663 15.9401 7.21224 16.5871 7.76048 17.0476C8.3062 17.506 8.98837 17.7506 9.68864 17.7391H19.3913C20.0916 17.7506 20.7738 17.506 21.3195 17.0476C21.868 16.5869 22.2437 15.9396 22.3809 15.2189L23.9823 6.45634C24.0381 6.15086 23.9605 5.83532 23.7705 5.59571C23.5805 5.3561 23.298 5.21739 23 5.21739H6.82043L5.98055 0.838688C5.88701 0.351011 5.47662 0 5 0H1ZM8.66084 14.8124L7.22073 7.30435H21.7913L20.4185 14.8157C20.3723 15.0546 20.2473 15.2691 20.0654 15.4219C19.8826 15.5755 19.6538 15.6571 19.4192 15.6524L19.4 15.6522H9.68L9.66084 15.6524C9.42618 15.6571 9.19743 15.5755 9.01461 15.4219C8.83179 15.2683 8.70656 15.0526 8.66084 14.8124ZM7 21.9131C7 20.7605 7.89543 19.8262 9 19.8262C10.1046 19.8262 11 20.7605 11 21.9131C11 23.0657 10.1046 24.0001 9 24.0001C7.89543 24.0001 7 23.0657 7 21.9131ZM18 21.9131C18 20.7605 18.8954 19.8262 20 19.8262C21.1046 19.8262 22 20.7605 22 21.9131C22 23.0657 21.1046 24.0001 20 24.0001C18.8954 24.0001 18 23.0657 18 21.9131Z" fill="#5826DA"/>
</g>
<defs>
<clipPath id="clip0_717_873">
<rect width="24" height="24" fill="white"/>
</clipPath>
</defs>
</svg>
