<svg width="20" height="20" viewBox="0 0 20 20" fill="none" xmlns="http://www.w3.org/2000/svg">
<path fill-rule="evenodd" clip-rule="evenodd" d="M4 2.75C3.66848 2.75 3.35054 2.8817 3.11612 3.11612C2.8817 3.35054 2.75 3.66848 2.75 4V6.25C2.75 6.58152 2.8817 6.89946 3.11612 7.13388C3.35054 7.3683 3.66848 7.5 4 7.5H6.25C6.58152 7.5 6.89946 7.3683 7.13388 7.13388C7.3683 6.89946 7.5 6.58152 7.5 6.25V4C7.5 3.66848 7.3683 3.35054 7.13388 3.11612C6.89946 2.8817 6.58152 2.75 6.25 2.75H4ZM1.7019 1.7019C2.3114 1.09241 3.13805 0.75 4 0.75H6.25C7.11195 0.75 7.9386 1.09241 8.5481 1.7019C9.15759 2.3114 9.5 3.13805 9.5 4V6.25C9.5 7.11195 9.15759 7.9386 8.5481 8.5481C7.9386 9.15759 7.11195 9.5 6.25 9.5H4C3.13805 9.5 2.3114 9.15759 1.7019 8.5481C1.09241 7.9386 0.75 7.11195 0.75 6.25V4C0.75 3.13805 1.09241 2.3114 1.7019 1.7019ZM13.75 2.75C13.4185 2.75 13.1005 2.8817 12.8661 3.11612C12.6317 3.35054 12.5 3.66848 12.5 4V6.25C12.5 6.58152 12.6317 6.89946 12.8661 7.13388C13.1005 7.3683 13.4185 7.5 13.75 7.5H16C16.3315 7.5 16.6495 7.3683 16.8839 7.13388C17.1183 6.89946 17.25 6.58152 17.25 6.25V4C17.25 3.66848 17.1183 3.35054 16.8839 3.11612C16.6495 2.8817 16.3315 2.75 16 2.75H13.75ZM11.4519 1.7019C12.0614 1.09241 12.888 0.75 13.75 0.75H16C16.862 0.75 17.6886 1.09241 18.2981 1.7019C18.9076 2.3114 19.25 3.13805 19.25 4V6.25C19.25 7.11195 18.9076 7.9386 18.2981 8.5481C17.6886 9.15759 16.862 9.5 16 9.5H13.75C12.888 9.5 12.0614 9.15759 11.4519 8.5481C10.8424 7.9386 10.5 7.11195 10.5 6.25V4C10.5 3.13805 10.8424 2.3114 11.4519 1.7019ZM4 12.5C3.66848 12.5 3.35054 12.6317 3.11612 12.8661C2.8817 13.1005 2.75 13.4185 2.75 13.75V16C2.75 16.3315 2.8817 16.6495 3.11612 16.8839C3.35054 17.1183 3.66848 17.25 4 17.25H6.25C6.58152 17.25 6.89946 17.1183 7.13388 16.8839C7.3683 16.6495 7.5 16.3315 7.5 16V13.75C7.5 13.4185 7.3683 13.1005 7.13388 12.8661C6.89946 12.6317 6.58152 12.5 6.25 12.5H4ZM1.7019 11.4519C2.3114 10.8424 3.13805 10.5 4 10.5H6.25C7.11195 10.5 7.9386 10.8424 8.5481 11.4519C9.15759 12.0614 9.5 12.888 9.5 13.75V16C9.5 16.862 9.15759 17.6886 8.5481 18.2981C7.9386 18.9076 7.11195 19.25 6.25 19.25H4C3.13805 19.25 2.3114 18.9076 1.7019 18.2981C1.09241 17.6886 0.75 16.862 0.75 16V13.75C0.75 12.888 1.09241 12.0614 1.7019 11.4519ZM13.75 12.5C13.4185 12.5 13.1005 12.6317 12.8661 12.8661C12.6317 13.1005 12.5 13.4185 12.5 13.75V16C12.5 16.3315 12.6317 16.6495 12.8661 16.8839C13.1005 17.1183 13.4185 17.25 13.75 17.25H16C16.3315 17.25 16.6495 17.1183 16.8839 16.8839C17.1183 16.6495 17.25 16.3315 17.25 16V13.75C17.25 13.4185 17.1183 13.1005 16.8839 12.8661C16.6495 12.6317 16.3315 12.5 16 12.5H13.75ZM11.4519 11.4519C12.0614 10.8424 12.888 10.5 13.75 10.5H16C16.862 10.5 17.6886 10.8424 18.2981 11.4519C18.9076 12.0614 19.25 12.888 19.25 13.75V16C19.25 16.862 18.9076 17.6886 18.2981 18.2981C17.6886 18.9076 16.862 19.25 16 19.25H13.75C12.888 19.25 12.0614 18.9076 11.4519 18.2981C10.8424 17.6886 10.5 16.862 10.5 16V13.75C10.5 12.888 10.8424 12.0614 11.4519 11.4519Z" fill="black"/>
</svg>
