<svg width="24" height="24" viewBox="0 0 24 24" fill="none" xmlns="http://www.w3.org/2000/svg">
<path fill-rule="evenodd" clip-rule="evenodd" d="M10.9255 7C10.9502 7.00001 10.9751 7.00001 11 7.00001H13C13.025 7.00001 13.0498 7.00001 13.0746 7C13.9535 6.99993 14.728 6.99986 15.3515 7.09889C16.0407 7.20837 16.6788 7.45687 17.1774 8.04588C17.565 8.50431 17.8075 8.93921 17.9145 9.61421C18.0002 10.1552 18.0001 10.8775 18 11.8905C18 11.9266 18 11.9631 18 12V16C18 16.0369 18 16.0735 18 16.1097C18.0001 17.1231 18.0002 17.8453 17.9144 18.3862C17.8074 19.0613 17.5652 19.4954 17.1779 19.9536C16.6792 20.5426 16.0407 20.7916 15.3515 20.9011C14.728 21.0002 13.9535 21.0001 13.0746 21L13 21L13 22C13 22.5523 12.5523 23 12 23C11.4477 23 11 22.5523 11 22V21L10.9254 21C10.0465 21.0001 9.27204 21.0002 8.64856 20.9011C7.9593 20.7916 7.32127 20.5432 6.82262 19.9541C6.43525 19.4959 6.19261 19.0613 6.08558 18.3862C5.99982 17.8453 5.9999 17.123 6.00001 16.1097C6.00001 16.0735 6.00002 16.0369 6.00002 16V12C6.00002 11.9631 6.00001 11.9266 6.00001 11.8905C5.9999 10.8775 5.99982 10.1552 6.08557 9.61421C6.19257 8.93921 6.43462 8.50486 6.82216 8.04642C7.32081 7.45741 7.9593 7.20837 8.64856 7.09889C9.27205 6.99986 10.0465 6.99993 10.9255 7ZM13 19C13.9762 19 14.5896 18.9971 15.0377 18.9259C15.4369 18.8625 15.5633 18.7652 15.6505 18.6624C15.849 18.4277 15.8997 18.3217 15.9391 18.073C15.9968 17.7095 16 17.1568 16 16V12C16 10.8438 15.9968 10.291 15.9391 9.92731C15.8996 9.67831 15.8488 9.57216 15.6505 9.3376C15.5633 9.23481 15.4369 9.13754 15.0377 9.07413C14.5896 9.00295 13.9762 9.00001 13 9.00001H11C10.0239 9.00001 9.41041 9.00295 8.9623 9.07413C8.56272 9.1376 8.43647 9.23499 8.34929 9.33789C8.1512 9.57225 8.10037 9.67842 8.06091 9.92731C8.00327 10.291 8.00002 10.8438 8.00002 12V16C8.00002 17.1568 8.00327 17.7095 8.06091 18.073C8.10034 18.3217 8.15108 18.4277 8.34953 18.6624C8.43672 18.7654 8.56239 18.8624 8.9623 18.9259C9.41041 18.9971 10.0239 19 11 19H13Z" fill="#1E1D21"/>
<path fill-rule="evenodd" clip-rule="evenodd" d="M12.6 11.2001C13.0418 11.5314 13.1314 12.1582 12.8 12.6001L12.5 13.0001H13.5C13.8788 13.0001 14.225 13.2141 14.3944 13.5528C14.5638 13.8916 14.5273 14.297 14.3 14.6001L12.8 16.6001C12.4686 17.0419 11.8418 17.1314 11.4 16.8001C10.9582 16.4687 10.8686 15.8419 11.2 15.4001L11.5 15.0001H10.5C10.1212 15.0001 9.77497 14.7861 9.60558 14.4473C9.43619 14.1085 9.47274 13.7031 9.70001 13.4001L11.2 11.4001C11.5314 10.9582 12.1582 10.8687 12.6 11.2001Z" fill="#1E1D21"/>
<path d="M15 8V5.5C15 4.096 15 3.393 14.7111 2.889C14.586 2.67053 14.4253 2.48296 14.238 2.337C13.806 2 13.2034 2 12 2C10.7957 2 10.194 2 9.762 2.337C9.57474 2.48296 9.41396 2.67053 9.28886 2.889C9 3.393 9 4.096 9 5.5V8" stroke="#1E1D21" stroke-width="2"/>
</svg>
