<svg width="24" height="24" viewBox="0 0 24 24" fill="none" xmlns="http://www.w3.org/2000/svg">
<g id="icon / compare" clip-path="url(#clip0_14_184)">
<path id="Vector 1 (Stroke)" fill-rule="evenodd" clip-rule="evenodd" d="M12 -0.039978C12.5523 -0.039978 13 0.407737 13 0.960022V4.12362L18.7066 5.95194L18.729 5.95939L20.9675 6.73515C21.4893 6.916 21.7658 7.48563 21.5849 8.00747C21.4041 8.5293 20.8344 8.80574 20.3126 8.62489L20.078 8.5436L21.7352 13H22.0001C22.5524 13 23.0001 13.4477 23.0001 14C23.0001 14.449 22.7042 14.829 22.2967 14.9553C22.1248 15.4353 21.8557 15.9622 21.4633 16.437C20.8119 17.2253 19.8052 17.88 18.4015 17.88C16.9979 17.88 15.991 17.2254 15.3391 16.4375C14.9462 15.9625 14.6765 15.4356 14.5042 14.9555C14.0964 14.8294 13.8001 14.4493 13.8001 14C13.8001 13.4477 14.2478 13 14.8001 13H15.0653L17.0989 7.537L13 6.22376V21.3332H16.5001C17.0524 21.3332 17.5001 21.7809 17.5001 22.3332C17.5001 22.8855 17.0524 23.3332 16.5001 23.3332H7.50012C6.94784 23.3332 6.50012 22.8855 6.50012 22.3332C6.50012 21.7809 6.94784 21.3332 7.50012 21.3332H11V5.58298L7.37964 4.42305L8.86568 8.60002H9.12004C9.67233 8.60002 10.12 9.04774 10.12 9.60002C10.12 10.0213 9.85956 10.3817 9.49088 10.529C9.33656 11.04 9.06667 11.5675 8.70091 12.0247C8.0781 12.8032 7.09179 13.48 5.76004 13.48C4.2923 13.48 3.22898 12.8543 2.52781 12.0635C2.10208 11.5833 1.81231 11.0473 1.62976 10.5572C1.21904 10.4328 0.920044 10.0514 0.920044 9.60002C0.920044 9.04774 1.36776 8.60002 1.92004 8.60002H2.21965L4.41074 3.46774L2.57154 2.87124C2.04619 2.70086 1.75844 2.13686 1.92882 1.61152C2.0992 1.08617 2.6632 0.798417 3.18855 0.968799L6.06516 1.90176L6.06855 1.90285L11 3.48284V0.960022C11 0.407737 11.4478 -0.039978 12 -0.039978ZM5.67533 5.59937L6.74287 8.60002H4.39429L5.67533 5.59937ZM3.9116 10.6H7.26717C7.22804 10.6588 7.18543 10.7175 7.13918 10.7753C6.80199 11.1968 6.3483 11.48 5.76004 11.48C4.92378 11.48 4.3871 11.1458 4.02428 10.7366C3.98473 10.692 3.94719 10.6464 3.9116 10.6ZM18.401 9.77205L17.1994 13H19.6014L18.401 9.77205ZM20.0454 15H16.7563C16.7952 15.0554 16.8364 15.1098 16.8801 15.1626C17.2209 15.5746 17.6942 15.88 18.4015 15.88C19.1087 15.88 19.5814 15.5747 19.9215 15.163C19.9653 15.1101 20.0066 15.0555 20.0454 15Z" fill="#FA7E47"/>
</g>
<defs>
<clipPath id="clip0_14_184">
<rect width="24" height="24" fill="white"/>
</clipPath>
</defs>
</svg>
