<svg width="21" height="20" viewBox="0 0 21 20" fill="none" xmlns="http://www.w3.org/2000/svg">
<g id="Group">
<path id="Union" fill-rule="evenodd" clip-rule="evenodd" d="M10.7775 0.441261C8.74019 -0.147087 6.25981 -0.147087 4.22255 0.441261C3.20048 0.736428 2.30743 1.17429 1.64943 1.744C0.991902 2.31331 0.5 3.08266 0.5 4V9V14C0.5 14.7846 0.8597 15.398 1.36076 15.8611C1.83078 16.2955 2.4534 16.627 3.09124 16.9126C3.59528 17.1384 4.18689 16.9128 4.41264 16.4088C4.63839 15.9047 4.4128 15.3131 3.90876 15.0874C3.3186 14.823 2.94123 14.5985 2.71824 14.3924C2.5263 14.215 2.5 14.1034 2.5 14V11.6287C2.69276 11.729 2.89125 11.8231 3.09124 11.9126C3.59528 12.1384 4.18689 11.9128 4.41264 11.4088C4.63839 10.9047 4.4128 10.3131 3.90876 10.0874C3.3186 9.82304 2.94123 9.59846 2.71824 9.39237C2.5263 9.21497 2.5 9.10336 2.5 9V6.85029C3.00817 7.13926 3.59071 7.37627 4.22255 7.55874C6.25981 8.14709 8.74019 8.14709 10.7775 7.55874C11.7995 7.26357 12.6926 6.82571 13.3506 6.256C14.0081 5.68669 14.5 4.91734 14.5 4C14.5 3.08266 14.0081 2.31331 13.3506 1.744C12.6926 1.17429 11.7995 0.736428 10.7775 0.441261ZM2.95857 4.744C2.5801 4.41631 2.5 4.15466 2.5 4C2.5 3.84534 2.5801 3.58369 2.95857 3.256C3.33658 2.92871 3.94352 2.60357 4.77745 2.36274C6.45219 1.87909 8.54781 1.87909 10.2225 2.36274C11.0565 2.60357 11.6634 2.92871 12.0414 3.256C12.4199 3.58369 12.5 3.84534 12.5 4C12.5 4.15466 12.4199 4.41631 12.0414 4.744C11.6634 5.07129 11.0565 5.39643 10.2225 5.63726C8.54781 6.12091 6.45219 6.12091 4.77745 5.63726C3.94352 5.39643 3.33657 5.07129 2.95857 4.744ZM6.5 12C6.5 10.5887 7.6179 9.58027 8.81004 8.9842C10.0619 8.35825 11.7214 8 13.5 8C15.2786 8 16.9381 8.35825 18.19 8.9842C19.3821 9.58027 20.5 10.5887 20.5 12V16C20.5 17.4109 19.382 18.4193 18.19 19.0154C16.9382 19.6415 15.2787 20 13.5 20C11.7213 20 10.0618 19.6415 8.80995 19.0154C7.61804 18.4193 6.5 17.4109 6.5 16V12ZM18.5 14.8502V16C18.5 16.2451 18.275 16.7367 17.2955 17.2266C16.3758 17.6865 15.0353 18 13.5 18C11.9647 18 10.6242 17.6865 9.70455 17.2266C8.72496 16.7367 8.5 16.2451 8.5 16V14.8502C8.60231 14.9085 8.70589 14.9637 8.81004 15.0158C10.0619 15.6417 11.7214 16 13.5 16C15.2786 16 16.9381 15.6417 18.19 15.0158C18.2941 14.9637 18.3977 14.9085 18.5 14.8502ZM8.5 12C8.5 12.2457 8.7251 12.7373 9.70446 13.2269C10.6241 13.6868 11.9646 14 13.5 14C15.0354 14 16.3759 13.6868 17.2955 13.2269C18.2749 12.7373 18.5 12.2457 18.5 12C18.5 11.7543 18.2749 11.2627 17.2955 10.7731C16.3759 10.3132 15.0354 10 13.5 10C11.9646 10 10.6241 10.3132 9.70446 10.7731C8.7251 11.2627 8.5 11.7543 8.5 12Z" fill="#5826DA"/>
</g>
</svg>
