<svg width="24" height="24" viewBox="0 0 24 24" fill="none" xmlns="http://www.w3.org/2000/svg">
<path d="M18 1.79997C18 1.64084 17.9368 1.48822 17.8243 1.3757C17.7118 1.26318 17.5592 1.19997 17.4 1.19997H14.4C12.8894 1.12472 11.4104 1.65044 10.2861 2.66226C9.16186 3.67409 8.48379 5.08976 8.40005 6.59997V9.83997H5.40005C5.24092 9.83997 5.08831 9.90318 4.97578 10.0157C4.86326 10.1282 4.80005 10.2808 4.80005 10.44V13.56C4.80005 13.7191 4.86326 13.8717 4.97578 13.9842C5.08831 14.0968 5.24092 14.16 5.40005 14.16H8.40005V22.2C8.40005 22.3591 8.46326 22.5117 8.57578 22.6242C8.68831 22.7368 8.84092 22.8 9.00005 22.8H12.6C12.7592 22.8 12.9118 22.7368 13.0243 22.6242C13.1368 22.5117 13.2 22.3591 13.2 22.2V14.16H16.344C16.4775 14.1619 16.6077 14.1193 16.7142 14.0389C16.8207 13.9584 16.8974 13.8448 16.932 13.716L17.796 10.596C17.8199 10.5073 17.8231 10.4144 17.8054 10.3243C17.7877 10.2342 17.7496 10.1494 17.6939 10.0763C17.6383 10.0033 17.5666 9.94402 17.4845 9.90304C17.4023 9.86206 17.3119 9.84048 17.22 9.83997H13.2V6.59997C13.2299 6.30294 13.3694 6.0277 13.5913 5.828C13.8132 5.6283 14.1015 5.51847 14.4 5.51997H17.4C17.5592 5.51997 17.7118 5.45675 17.8243 5.34423C17.9368 5.23171 18 5.0791 18 4.91997V1.79997Z" fill="#E0E4F0"/>
</svg>
