<svg width="24" height="24" viewBox="0 0 24 24" fill="none" xmlns="http://www.w3.org/2000/svg">
<g id="icon / headphones">
<path id="Union" fill-rule="evenodd" clip-rule="evenodd" d="M4.00189 11.5804C4.09487 7.40351 7.61406 4 12 4C13.5168 4 16.7506 4.21552 18.9366 7.88662C19.5861 8.97746 19.9684 10.2366 19.9981 11.5803C19.8806 11.5128 19.7587 11.4518 19.6327 11.3977C19.1326 11.1815 18.5489 11.1286 17.8318 11.0636L17.6849 11.0502L17.6839 11.0501L17.6382 11.0459H17.6382C17.4209 11.0262 17.2165 11.0076 17.0433 11.0019C16.8507 10.9956 16.6271 11.0016 16.39 11.0648L16.39 11.0647L16.3773 11.0683C15.9586 11.1859 15.5876 11.4198 15.2958 11.7333C15.0057 12.0451 14.8022 12.426 14.6954 12.8343C14.5989 13.1957 14.5994 13.6127 14.6 14.0769V14.0769L14.6001 14.187V18.6928L14.5999 18.8245C14.5991 19.3713 14.5984 19.8621 14.7264 20.2736C14.8481 20.6719 15.0637 21.0396 15.3622 21.336C15.6624 21.6341 16.0375 21.8505 16.455 21.951L16.455 21.9511L16.465 21.9534C16.7431 22.0173 17.0044 22.0047 17.2263 21.9793C17.4316 21.9558 17.6743 21.9114 17.9352 21.8638L17.9353 21.8637L17.9748 21.8565L17.9762 21.8563L18.1207 21.8298C18.8547 21.6954 19.446 21.5872 19.9439 21.312L19.9439 21.312L19.9512 21.3079C20.4269 21.0398 20.8389 20.6688 21.1653 20.2249C21.4908 19.7821 21.7255 19.2746 21.8593 18.7364C22.0007 18.1783 22.0004 17.5462 22.0001 16.6496L22.0001 16.5139V16.3279L22.0001 16.1952C22.0001 16.0938 22.0002 15.9958 22 15.9011V11.75C22 9.97064 21.51 8.29925 20.655 6.86338C17.9227 2.27477 13.761 2 12 2C6.50376 2 2 6.33872 2 11.75V17C2 17.0087 2.00011 17.0173 2.00033 17.026C2.00264 17.7291 2.0201 18.2597 2.14083 18.7362C2.27451 19.2746 2.5092 19.7821 2.8348 20.225C3.16119 20.6689 3.57323 21.0399 4.04909 21.308L4.04908 21.3081L4.05623 21.312C4.55418 21.5872 5.14545 21.6954 5.87948 21.8298L6.02397 21.8563L6.02534 21.8565L6.06487 21.8637C6.32575 21.9114 6.56846 21.9558 6.77381 21.9793C6.9957 22.0047 7.25702 22.0173 7.5351 21.9534L7.53511 21.9534L7.54513 21.951C7.96265 21.8505 8.33771 21.6341 8.63794 21.336C8.93647 21.0396 9.15203 20.6719 9.27374 20.2736C9.40172 19.8621 9.401 19.3713 9.40019 18.8245L9.40007 18.6928V14.187L9.40016 14.0769C9.40075 13.6128 9.40127 13.1957 9.30476 12.8344C9.19806 12.4261 8.99459 12.045 8.70441 11.7332C8.41255 11.4196 8.04133 11.1856 7.62248 11.0682L7.6225 11.0681L7.61012 11.0648C7.37303 11.0016 7.14944 10.9956 6.95679 11.0019C6.78369 11.0076 6.57922 11.0261 6.36184 11.0459L6.31546 11.0501L6.31424 11.0502L6.16712 11.0636C5.45093 11.1286 4.86748 11.1816 4.36748 11.3976C4.24141 11.4518 4.11947 11.5129 4.00189 11.5804ZM5.16055 13.2337C5.32834 13.161 5.56105 13.1278 6.49652 13.0419C6.75829 13.0182 6.90895 13.0046 7.02207 13.0009C7.06465 12.9995 7.09035 13.0001 7.1036 13.0008C7.14629 13.0166 7.19414 13.0461 7.24032 13.0957C7.29491 13.1544 7.34313 13.2375 7.37001 13.3411L7.36997 13.3411L7.37254 13.3507C7.39122 13.4198 7.40007 13.5416 7.40007 14.187V18.6928C7.40007 19.4569 7.38814 19.6026 7.36404 19.6794L7.364 19.6794L7.36136 19.6881C7.33141 19.7867 7.28223 19.8637 7.22875 19.9168C7.18458 19.9607 7.13974 19.9863 7.09981 19.9999C7.08421 19.9996 7.05324 19.9982 7.00142 19.9923C6.86801 19.977 6.6895 19.9447 6.38532 19.8892C5.44373 19.7159 5.20208 19.6592 5.02702 19.5634C4.8104 19.4406 4.61107 19.2646 4.44617 19.0403C4.28016 18.8145 4.15427 18.5466 4.08147 18.2526L4.08149 18.2526L4.07988 18.2462C4.00774 17.9628 4.00007 17.6029 4.00007 16.5139V16.3279C4.00007 15.2669 4.00713 14.9137 4.07348 14.6401C4.24496 13.9361 4.67744 13.4409 5.15731 13.2351L5.16055 13.2337ZM16.7599 13.0958C16.8061 13.0462 16.8539 13.0167 16.8967 13.0008C16.9099 13.0001 16.9356 12.9995 16.9779 13.0009C17.0909 13.0045 17.2414 13.0182 17.5028 13.0419C18.4392 13.1278 18.6718 13.161 18.8396 13.2337L18.8428 13.2351C19.3226 13.4408 19.7551 13.936 19.9266 14.6398C19.993 14.9135 20.0001 15.2665 20.0001 16.3279V16.5139C20.0001 17.6029 19.9924 17.9628 19.9203 18.2462L19.9202 18.2462L19.9187 18.2524C19.8459 18.5465 19.7199 18.8144 19.5539 19.0402C19.389 19.2645 19.1897 19.4406 18.9731 19.5634C18.798 19.6592 18.5563 19.7159 17.6148 19.8892C17.3106 19.9447 17.1321 19.977 16.9987 19.9923C16.9469 19.9982 16.9159 19.9996 16.9003 19.9999C16.8604 19.9863 16.8156 19.9607 16.7714 19.9168C16.7179 19.8637 16.6687 19.7867 16.6388 19.6881L16.6388 19.6881L16.6361 19.6794C16.612 19.6026 16.6001 19.4569 16.6001 18.6928V14.187C16.6001 13.5416 16.6089 13.4198 16.6276 13.3507L16.6276 13.3507L16.63 13.3414C16.657 13.2378 16.7052 13.1545 16.7599 13.0958Z" fill="#1E1D21"/>
</g>
</svg>
