<svg width="24" height="22" viewBox="0 0 24 22" fill="none" xmlns="http://www.w3.org/2000/svg">
<path fill-rule="evenodd" clip-rule="evenodd" d="M14.462 1.49324C15.2508 1.1664 16.0963 0.998169 16.9501 0.998169C17.804 0.998169 18.6495 1.1664 19.4383 1.49324C20.2269 1.82003 20.9435 2.29897 21.5471 2.90272C22.1508 3.50627 22.6301 4.22318 22.9569 5.01185C23.2837 5.80066 23.4519 6.64614 23.4519 7.49999C23.4519 8.35384 23.2837 9.19933 22.9569 9.98814C22.6301 10.7769 22.1511 11.4935 21.5472 12.0971C21.5472 12.0972 21.5473 12.097 21.5472 12.0971L12.7072 20.9371C12.3167 21.3276 11.6835 21.3276 11.293 20.9371L2.45301 12.0971C1.23378 10.8779 0.548828 9.22424 0.548828 7.49999C0.548828 5.77574 1.23378 4.12212 2.45301 2.90289C3.67224 1.68366 5.32587 0.998704 7.05012 0.998704C8.77437 0.998704 10.428 1.68366 11.6472 2.90289L12.0001 3.25578L12.3528 2.90305C12.3528 2.90311 12.3529 2.903 12.3528 2.90305C12.9564 2.29923 13.6732 1.82006 14.462 1.49324ZM16.9501 2.99817C16.359 2.99817 15.7737 3.11463 15.2276 3.34091C14.6815 3.56719 14.1853 3.89885 13.7674 4.31694L12.7072 5.3771C12.3167 5.76763 11.6835 5.76763 11.293 5.3771L10.233 4.3171C9.38886 3.47295 8.24394 2.9987 7.05012 2.9987C5.8563 2.9987 4.71138 3.47295 3.86723 4.3171C3.02307 5.16126 2.54883 6.30618 2.54883 7.49999C2.54883 8.69381 3.02307 9.83873 3.86723 10.6829L12.0001 18.8158L20.133 10.6829C20.5511 10.265 20.8829 9.76866 21.1092 9.22256C21.3355 8.67645 21.4519 8.09112 21.4519 7.49999C21.4519 6.90887 21.3355 6.32353 21.1092 5.77743C20.8829 5.23133 20.5513 4.73516 20.1332 4.31727C19.7153 3.89918 19.2188 3.56719 18.6727 3.34091C18.1266 3.11463 17.5412 2.99817 16.9501 2.99817Z" fill="#D84576"/>
</svg>
