<svg width="16" height="16" viewBox="0 0 16 16" fill="none" xmlns="http://www.w3.org/2000/svg">
<g id="icon / read more 16">
<path id="Vector" d="M8.8 6.2H13.35C13.7075 6.2 14 5.93 14 5.6C14 5.27 13.7075 5 13.35 5H8.8C8.4425 5 8.15 5.27 8.15 5.6C8.15 5.93 8.4425 6.2 8.8 6.2ZM13.35 9.8H8.8C8.4425 9.8 8.15 10.07 8.15 10.4C8.15 10.73 8.4425 11 8.8 11H13.35C13.7075 11 14 10.73 14 10.4C14 10.07 13.7075 9.8 13.35 9.8ZM13.35 7.4H10.75C10.3925 7.4 10.1 7.67 10.1 8C10.1 8.33 10.3925 8.6 10.75 8.6H13.35C13.7075 8.6 14 8.33 14 8C14 7.67 13.7075 7.4 13.35 7.4ZM5.4525 5.51C5.40668 5.46854 5.34859 5.44052 5.28554 5.42949C5.2225 5.41846 5.15733 5.42489 5.09825 5.44799C5.03916 5.47109 4.98881 5.50982 4.95353 5.55929C4.91825 5.60877 4.89962 5.66677 4.9 5.726V7.4H1.65C1.2925 7.4 1 7.67 1 8C1 8.33 1.2925 8.6 1.65 8.6H4.9V10.274C4.9 10.544 5.251 10.676 5.4525 10.484L7.916 8.21C8.046 8.09 8.046 7.904 7.916 7.784L5.4525 5.51Z" fill="#4117AD"/>
</g>
</svg>
