<svg width="24" height="24" viewBox="0 0 24 24" fill="none" xmlns="http://www.w3.org/2000/svg">
<g id="icon / laptop">
<path id="Vector (Stroke)" fill-rule="evenodd" clip-rule="evenodd" d="M3.75656 5C3.50648 5 3.25 5.21839 3.25 5.55516V17.1545C3.25 17.4913 3.50649 17.7097 3.75656 17.7097H20.2434C20.4935 17.7097 20.75 17.4913 20.75 17.1545V5.55516C20.75 5.21839 20.4935 5 20.2434 5H3.75656ZM1.25 5.55516C1.25 4.17415 2.34254 3 3.75656 3H20.2434C21.6575 3 22.75 4.17415 22.75 5.55516V17.1545C22.75 17.8701 22.4567 18.5301 21.9773 19H23C23.5523 19 24 19.4477 24 20C24 20.5523 23.5523 21 23 21L1 21C0.447715 21 5.96046e-08 20.5523 0 20C0 19.4477 0.447715 19 1 19H2.02266C1.5433 18.5301 1.25 17.8701 1.25 17.1545V5.55516Z" fill="#1E1D21"/>
</g>
</svg>
