<svg width="24" height="24" viewBox="0 0 24 24" fill="none" xmlns="http://www.w3.org/2000/svg">
<g id="icon / map-pin">
<path id="Union" fill-rule="evenodd" clip-rule="evenodd" d="M6.32651 4.23957C7.82362 2.81052 9.86365 2 12 2C14.1364 2 16.1764 2.81052 17.6735 4.23957C19.169 5.66712 20 7.59308 20 9.59091C20 12.5121 18.0046 15.3655 15.7902 17.5967C14.7065 18.6886 13.6191 19.5829 12.8011 20.2046C12.4881 20.4425 12.2159 20.6395 12 20.7915C11.7841 20.6395 11.5119 20.4425 11.1989 20.2046C10.3809 19.5829 9.29348 18.6886 8.20977 17.5967C5.99539 15.3655 4 12.5121 4 9.59091C4 7.59308 4.83099 5.66712 6.32651 4.23957ZM11.4626 22.8433C11.4629 22.8435 11.4631 22.8437 12 22L11.4631 22.8437C11.7907 23.0521 12.2093 23.0521 12.5369 22.8437L12 22C12.5369 22.8437 12.5371 22.8435 12.5374 22.8433L12.5382 22.8428L12.5403 22.8415L12.5469 22.8372L12.5698 22.8224C12.5893 22.8098 12.6171 22.7917 12.6526 22.7682C12.7236 22.7213 12.8256 22.6529 12.9543 22.5642C13.2115 22.3868 13.5758 22.1279 14.0114 21.7968C14.8809 21.1359 16.0435 20.1807 17.2098 19.0056C19.4954 16.7026 22 13.3515 22 9.59091C22 7.03183 20.9346 4.58754 19.0544 2.79286C17.1759 0.999699 14.6375 0 12 0C9.36246 0 6.82412 0.999699 4.94556 2.79286C3.06543 4.58754 2 7.03183 2 9.59091C2 13.3515 4.50461 16.7026 6.79023 19.0056C7.95652 20.1807 9.11907 21.1359 9.98862 21.7968C10.4242 22.1279 10.7885 22.3868 11.0457 22.5642C11.1744 22.6529 11.2764 22.7213 11.3474 22.7682C11.3829 22.7917 11.4107 22.8098 11.4302 22.8224L11.4531 22.8372L11.4597 22.8415L11.4618 22.8428L11.4626 22.8433ZM10 10C10 8.89543 10.8954 8 12 8C13.1046 8 14 8.89543 14 10C14 11.1046 13.1046 12 12 12C10.8954 12 10 11.1046 10 10ZM12 6C9.79086 6 8 7.79086 8 10C8 12.2091 9.79086 14 12 14C14.2091 14 16 12.2091 16 10C16 7.79086 14.2091 6 12 6Z" fill="#1E1D21"/>
</g>
</svg>
