<svg width="24" height="24" viewBox="0 0 24 24" fill="none" xmlns="http://www.w3.org/2000/svg">
<g id="icon / building">
<path id="Vector (Stroke)" fill-rule="evenodd" clip-rule="evenodd" d="M2.81818 3C2.81818 2.44772 3.2659 2 3.81818 2H20.1818C20.7341 2 21.1818 2.44772 21.1818 3C21.1818 3.49019 20.8291 3.89801 20.3636 3.98351V20H21C21.5523 20 22 20.4477 22 21C22 21.5523 21.5523 22 21 22H3C2.44772 22 2 21.5523 2 21C2 20.4477 2.44772 20 3 20H3.63636V3.98351C3.17089 3.89801 2.81818 3.49019 2.81818 3ZM5.63636 4V20H7.72727V17.625C7.72727 16.3716 8.80849 15.5 9.95455 15.5H14.0455C15.1915 15.5 16.2727 16.3716 16.2727 17.625V20H18.3636V4H5.63636ZM14.2727 20V17.625C14.2727 17.6206 14.2727 17.5992 14.2374 17.5668C14.2007 17.5331 14.1353 17.5 14.0455 17.5H9.95455C9.8647 17.5 9.79933 17.5331 9.76259 17.5668C9.72726 17.5992 9.72727 17.6206 9.72727 17.625V20H14.2727ZM7.72727 6.75C7.72727 6.19772 8.17499 5.75 8.72727 5.75H10.3636C10.9159 5.75 11.3636 6.19772 11.3636 6.75C11.3636 7.30228 10.9159 7.75 10.3636 7.75H8.72727C8.17499 7.75 7.72727 7.30228 7.72727 6.75ZM12.6364 6.75C12.6364 6.19772 13.0841 5.75 13.6364 5.75H15.2727C15.825 5.75 16.2727 6.19772 16.2727 6.75C16.2727 7.30228 15.825 7.75 15.2727 7.75H13.6364C13.0841 7.75 12.6364 7.30228 12.6364 6.75ZM7.72727 9.75C7.72727 9.19772 8.17499 8.75 8.72727 8.75H10.3636C10.9159 8.75 11.3636 9.19772 11.3636 9.75C11.3636 10.3023 10.9159 10.75 10.3636 10.75H8.72727C8.17499 10.75 7.72727 10.3023 7.72727 9.75ZM12.6364 9.75C12.6364 9.19772 13.0841 8.75 13.6364 8.75H15.2727C15.825 8.75 16.2727 9.19772 16.2727 9.75C16.2727 10.3023 15.825 10.75 15.2727 10.75H13.6364C13.0841 10.75 12.6364 10.3023 12.6364 9.75ZM7.72727 12.75C7.72727 12.1977 8.17499 11.75 8.72727 11.75H10.3636C10.9159 11.75 11.3636 12.1977 11.3636 12.75C11.3636 13.3023 10.9159 13.75 10.3636 13.75H8.72727C8.17499 13.75 7.72727 13.3023 7.72727 12.75ZM12.6364 12.75C12.6364 12.1977 13.0841 11.75 13.6364 11.75H15.2727C15.825 11.75 16.2727 12.1977 16.2727 12.75C16.2727 13.3023 15.825 13.75 15.2727 13.75H13.6364C13.0841 13.75 12.6364 13.3023 12.6364 12.75Z" fill="#1E1D21"/>
</g>
</svg>
