<svg width="24" height="24" viewBox="0 0 24 24" fill="none" xmlns="http://www.w3.org/2000/svg">
<g id="icon / percentage">
<path id="evaPercentOutline2" d="M8 11C8.69224 11 9.36893 10.7947 9.9445 10.4102C10.5201 10.0256 10.9687 9.47894 11.2336 8.8394C11.4985 8.19986 11.5678 7.49613 11.4327 6.81719C11.2977 6.13826 10.9644 5.51462 10.4749 5.02513C9.98539 4.53565 9.36175 4.20231 8.68282 4.06726C8.00388 3.93221 7.30015 4.00152 6.66061 4.26643C6.02107 4.53134 5.47444 4.97994 5.08986 5.55551C4.70527 6.13108 4.5 6.80777 4.5 7.50001C4.5 8.42827 4.86875 9.3185 5.52513 9.97488C6.1815 10.6313 7.07174 11 8 11ZM8 6.00001C8.29667 6.00001 8.58668 6.08798 8.83336 6.2528C9.08003 6.41763 9.27229 6.65189 9.38582 6.92598C9.49935 7.20007 9.52906 7.50167 9.47118 7.79264C9.4133 8.08361 9.27044 8.35089 9.06066 8.56067C8.85088 8.77045 8.58361 8.91331 8.29264 8.97119C8.00167 9.02906 7.70006 8.99936 7.42598 8.88583C7.15189 8.7723 6.91762 8.58004 6.7528 8.33336C6.58797 8.08669 6.5 7.79668 6.5 7.50001C6.5 7.10218 6.65804 6.72065 6.93934 6.43935C7.22065 6.15804 7.60218 6.00001 8 6.00001ZM16 14C15.3078 14 14.6311 14.2053 14.0555 14.5899C13.4799 14.9744 13.0313 15.5211 12.7664 16.1606C12.5015 16.8002 12.4322 17.5039 12.5673 18.1828C12.7023 18.8618 13.0356 19.4854 13.5251 19.9749C14.0146 20.4644 14.6383 20.7977 15.3172 20.9328C15.9961 21.0678 16.6999 20.9985 17.3394 20.7336C17.9789 20.4687 18.5256 20.0201 18.9101 19.4445C19.2947 18.8689 19.5 18.1922 19.5 17.5C19.5 16.5717 19.1313 15.6815 18.4749 15.0251C17.8185 14.3688 16.9283 14 16 14ZM16 19C15.7033 19 15.4133 18.912 15.1666 18.7472C14.92 18.5824 14.7277 18.3481 14.6142 18.074C14.5007 17.7999 14.4709 17.4983 14.5288 17.2074C14.5867 16.9164 14.7296 16.6491 14.9393 16.4393C15.1491 16.2296 15.4164 16.0867 15.7074 16.0288C15.9983 15.971 16.2999 16.0007 16.574 16.1142C16.8481 16.2277 17.0824 16.42 17.2472 16.6667C17.412 16.9133 17.5 17.2033 17.5 17.5C17.5 17.8978 17.342 18.2794 17.0607 18.5607C16.7794 18.842 16.3978 19 16 19ZM19.74 4.26001C19.6573 4.17716 19.5591 4.11143 19.451 4.06659C19.3429 4.02174 19.227 3.99866 19.11 3.99866C18.993 3.99866 18.8771 4.02174 18.769 4.06659C18.6609 4.11143 18.5627 4.17716 18.48 4.26001L4.26 18.48C4.095 18.6484 4.00179 18.8743 4 19.11C3.99973 19.2862 4.05179 19.4586 4.14956 19.6052C4.24734 19.7518 4.38644 19.8661 4.54923 19.9335C4.71202 20.001 4.89118 20.0186 5.064 19.9842C5.23682 19.9497 5.39553 19.8647 5.52 19.74L19.74 5.52001C19.8228 5.43734 19.8886 5.33914 19.9334 5.23104C19.9783 5.12293 20.0014 5.00704 20.0014 4.89001C20.0014 4.77297 19.9783 4.65708 19.9334 4.54898C19.8886 4.44087 19.8228 4.34268 19.74 4.26001Z" fill="#1E1D21"/>
</g>
</svg>
