<svg width="24" height="24" viewBox="0 0 24 24" fill="none" xmlns="http://www.w3.org/2000/svg">
<g id="icon / phone">
<path id="Vector (Stroke)" fill-rule="evenodd" clip-rule="evenodd" d="M7.71429 3C7.49201 3 7.29773 3.08023 7.17001 3.19485C7.04585 3.30627 7 3.43272 7 3.53846V20.4615C7 20.5673 7.04585 20.6937 7.17001 20.8052C7.29773 20.9198 7.49202 21 7.71429 21H16.2857C16.508 21 16.7023 20.9198 16.83 20.8052C16.9541 20.6937 17 20.5673 17 20.4615V3.53846C17 3.43272 16.9541 3.30627 16.83 3.19485C16.7023 3.08023 16.508 3 16.2857 3H7.71429ZM5.83419 1.70636C6.34946 1.24395 7.02724 1 7.71429 1H16.2857C16.9728 1 17.6505 1.24395 18.1658 1.70636C18.6846 2.17197 19 2.82815 19 3.53846V20.4615C19 21.1719 18.6846 21.828 18.1658 22.2936C17.6505 22.7561 16.9728 23 16.2857 23H7.71429C7.02724 23 6.34946 22.7561 5.83419 22.2936C5.31537 21.828 5 21.1719 5 20.4615V3.53846C5 2.82815 5.31537 2.17197 5.83419 1.70636ZM10.1429 18.9231C10.1429 18.3708 10.5906 17.9231 11.1429 17.9231H12.8571C13.4094 17.9231 13.8571 18.3708 13.8571 18.9231C13.8571 19.4754 13.4094 19.9231 12.8571 19.9231H11.1429C10.5906 19.9231 10.1429 19.4754 10.1429 18.9231Z" fill="#1E1D21"/>
</g>
</svg>
