<svg width="17" height="16" viewBox="0 0 17 16" fill="none" xmlns="http://www.w3.org/2000/svg">
<g id="tabs reviews questions/icon/read more 16">
<path id="Vector" d="M8.95942 6.2H13.5094C13.8669 6.2 14.1594 5.93 14.1594 5.6C14.1594 5.27 13.8669 5 13.5094 5H8.95942C8.60192 5 8.30942 5.27 8.30942 5.6C8.30942 5.93 8.60192 6.2 8.95942 6.2ZM13.5094 9.8H8.95942C8.60192 9.8 8.30942 10.07 8.30942 10.4C8.30942 10.73 8.60192 11 8.95942 11H13.5094C13.8669 11 14.1594 10.73 14.1594 10.4C14.1594 10.07 13.8669 9.8 13.5094 9.8ZM13.5094 7.4H10.9094C10.5519 7.4 10.2594 7.67 10.2594 8C10.2594 8.33 10.5519 8.6 10.9094 8.6H13.5094C13.8669 8.6 14.1594 8.33 14.1594 8C14.1594 7.67 13.8669 7.4 13.5094 7.4ZM5.61192 5.51C5.5661 5.46854 5.50801 5.44052 5.44497 5.42949C5.38193 5.41846 5.31675 5.42489 5.25767 5.44799C5.19859 5.47109 5.14823 5.50982 5.11295 5.55929C5.07767 5.60877 5.05905 5.66677 5.05942 5.726V7.4H1.80942C1.45192 7.4 1.15942 7.67 1.15942 8C1.15942 8.33 1.45192 8.6 1.80942 8.6H5.05942V10.274C5.05942 10.544 5.41042 10.676 5.61192 10.484L8.07542 8.21C8.20542 8.09 8.20542 7.904 8.07542 7.784L5.61192 5.51Z" fill="#5826DA"/>
</g>
</svg>
