<svg width="24" height="24" viewBox="0 0 24 24" fill="none" xmlns="http://www.w3.org/2000/svg">
<path d="M14 9H21C21.55 9 22 8.55 22 8C22 7.45 21.55 7 21 7H14C13.45 7 13 7.45 13 8C13 8.55 13.45 9 14 9ZM21 15H14C13.45 15 13 15.45 13 16C13 16.55 13.45 17 14 17H21C21.55 17 22 16.55 22 16C22 15.45 21.55 15 21 15ZM21 11H17C16.45 11 16 11.45 16 12C16 12.55 16.45 13 17 13H21C21.55 13 22 12.55 22 12C22 11.45 21.55 11 21 11ZM8.85 7.85C8.7795 7.7809 8.69013 7.73421 8.59314 7.71582C8.49616 7.69743 8.39589 7.70816 8.30499 7.74665C8.2141 7.78515 8.13663 7.8497 8.08235 7.93215C8.02807 8.01461 7.99942 8.11129 8 8.21V11H3C2.45 11 2 11.45 2 12C2 12.55 2.45 13 3 13H8V15.79C8 16.24 8.54 16.46 8.85 16.14L12.64 12.35C12.84 12.15 12.84 11.84 12.64 11.64L8.85 7.85Z" fill="#5826DA"/>
</svg>
