<svg width="24" height="24" viewBox="0 0 24 24" fill="none" xmlns="http://www.w3.org/2000/svg">
<g id="icon / shield" clip-path="url(#clip0_230_528)">
<path id="Union" fill-rule="evenodd" clip-rule="evenodd" d="M12.3901 0.0665654C12.1386 -0.0221885 11.8614 -0.0221885 11.6099 0.0665654L2.72097 3.20295C2.2873 3.35597 2 3.74605 2 4.18185V11.5001C2 15.1032 4.53527 17.9823 6.82388 19.8665C7.99153 20.8278 9.15394 21.5792 10.0222 22.0898C10.4575 22.3458 10.8219 22.543 11.0799 22.6774C11.209 22.7447 11.3117 22.7963 11.3837 22.8319C11.4197 22.8496 11.448 22.8634 11.468 22.8731L11.4919 22.8845L11.4991 22.8879L11.5024 22.8895C11.8152 23.0366 12.1841 23.0369 12.4969 22.8898L12 21.9547C12.4969 22.8898 12.4981 22.8892 12.4985 22.889L12.5009 22.8879L12.5081 22.8845L12.532 22.8731C12.552 22.8634 12.5803 22.8496 12.6163 22.8319C12.6883 22.7963 12.791 22.7447 12.9201 22.6774C13.1781 22.543 13.5425 22.3458 13.9778 22.0898C14.8461 21.5792 16.0085 20.8278 17.1761 19.8665C19.4647 17.9823 22 15.1032 22 11.5001V4.18185C22 3.74605 21.7127 3.35597 21.279 3.20295L12.3901 0.0665654ZM12 21.9547L11.5024 22.8895C11.5028 22.8896 11.5031 22.8898 12 21.9547ZM12.8 20.3167C12.4852 20.5018 12.2129 20.6522 12 20.7658C11.7871 20.6522 11.5148 20.5018 11.2 20.3167C10.4016 19.8472 9.3418 19.1611 8.28723 18.2929C6.13139 16.518 4.22222 14.1697 4.22222 11.5001V4.90635L12 2.16202L19.7778 4.90635V11.5001C19.7778 14.1697 17.8686 16.518 15.7128 18.2929C14.6582 19.1611 13.5984 19.8472 12.8 20.3167ZM15.6961 9.7179C16.0926 9.33343 16.1024 8.70034 15.7179 8.30385C15.3334 7.90737 14.7003 7.89763 14.3039 8.2821L10.875 11.607L9.69615 10.4639C9.29966 10.0794 8.66657 10.0892 8.2821 10.4857C7.89763 10.8822 7.90737 11.5152 8.30385 11.8997L10.1789 13.7179C10.5667 14.094 11.1833 14.094 11.5711 13.7179L15.6961 9.7179Z" fill="#1E1D21"/>
</g>
<defs>
<clipPath id="clip0_230_528">
<rect width="24" height="24" fill="white"/>
</clipPath>
</defs>
</svg>
