<svg width="25" height="24" viewBox="0 0 25 24" fill="none" xmlns="http://www.w3.org/2000/svg">
<g id="icon / star">
<path id="Vector (Stroke)" fill-rule="evenodd" clip-rule="evenodd" d="M12.5 1C12.8806 1 13.2283 1.21607 13.3967 1.55738L16.2543 7.34647L22.6447 8.28051C23.0212 8.33555 23.3339 8.59956 23.4513 8.96157C23.5687 9.32358 23.4704 9.72083 23.1978 9.98636L18.5746 14.4894L19.6656 20.851C19.73 21.2261 19.5757 21.6053 19.2678 21.8291C18.9598 22.0528 18.5515 22.0823 18.2146 21.9051L12.5 18.8998L6.78548 21.9051C6.44856 22.0823 6.04027 22.0528 5.7323 21.8291C5.42432 21.6053 5.27007 21.2261 5.33442 20.851L6.42551 14.4894L1.8023 9.98636C1.52968 9.72083 1.43141 9.32358 1.54878 8.96157C1.66616 8.59956 1.97884 8.33555 2.3554 8.28051L8.74577 7.34647L11.6033 1.55738C11.7718 1.21607 12.1194 1 12.5 1ZM12.5 4.25925L10.3067 8.70262C10.1612 8.99747 9.88001 9.20193 9.55466 9.24949L4.64844 9.9666L8.19776 13.4236C8.43364 13.6534 8.5413 13.9845 8.48564 14.309L7.64821 19.1917L12.0346 16.8849C12.326 16.7317 12.6741 16.7317 12.9655 16.8849L17.3518 19.1917L16.5144 14.309C16.4588 13.9845 16.5664 13.6534 16.8023 13.4236L20.3516 9.9666L15.4454 9.24949C15.12 9.20193 14.8389 8.99747 14.6933 8.70262L12.5 4.25925Z" fill="white"/>
</g>
</svg>
