<svg width="28" height="26" viewBox="0 0 28 26" fill="none" xmlns="http://www.w3.org/2000/svg">
    <path d="M13.0483 0.951056C13.3463 0.026973 14.6537 0.0269713 14.9517 0.951055L17.3497 8.38652C17.4832 8.80037 17.8688 9.08053 18.3036 9.07958L26.1162 9.06251C27.0871 9.06038 27.4911 10.3038 26.7044 10.8728L20.3738 15.4511C20.0215 15.7059 19.8742 16.1592 20.0095 16.5725L22.4399 23.9974C22.742 24.9202 21.6843 25.6887 20.9 25.1162L14.5896 20.5103C14.2383 20.2539 13.7617 20.2539 13.4104 20.5103L7.09999 25.1162C6.31572 25.6887 5.258 24.9202 5.56006 23.9974L7.99051 16.5725C8.12579 16.1592 7.9785 15.7059 7.62615 15.4511L1.29562 10.8728C0.508855 10.3038 0.912867 9.06038 1.88382 9.06251L9.69638 9.07958C10.1312 9.08053 10.5168 8.80037 10.6503 8.38652L13.0483 0.951056Z"
          fill="currentColor"/>
</svg>
