<svg width="16" height="15" viewBox="0 0 16 15" fill="none" xmlns="http://www.w3.org/2000/svg">
<path d="M7.04829 0.951059C7.34631 0.0269761 8.65373 0.0269735 8.95175 0.951057L10.0096 4.23108C10.143 4.64493 10.5287 4.92509 10.9635 4.92414L14.4099 4.91661C15.3808 4.91449 15.7848 6.15791 14.9981 6.72691L12.2055 8.74654C11.8531 9.00136 11.7058 9.45468 11.8411 9.86794L12.9133 13.1433C13.2153 14.0661 12.1576 14.8346 11.3733 14.2621L8.58957 12.2303C8.23834 11.9739 7.7617 11.9739 7.41047 12.2303L4.62672 14.2621C3.84246 14.8346 2.78473 14.0661 3.08679 13.1433L4.15894 9.86794C4.29422 9.45468 4.14693 9.00136 3.79458 8.74654L1.00198 6.72691C0.215215 6.15792 0.619227 4.91449 1.59018 4.91661L5.03655 4.92414C5.47139 4.92509 5.857 4.64493 5.99047 4.23108L7.04829 0.951059Z" fill="#EEC46B"/>
</svg>
