<svg width="24" height="24" viewBox="0 0 24 24" fill="none" xmlns="http://www.w3.org/2000/svg">
<g id="icon / truck">
<path id="Vector (Stroke)" fill-rule="evenodd" clip-rule="evenodd" d="M2.22222 4C2.1801 4 2.12879 4.01714 2.08276 4.06556C2.03509 4.11571 2 4.19406 2 4.28571V17.1429C2 17.2345 2.03509 17.3129 2.08276 17.363C2.12879 17.4114 2.18009 17.4286 2.22222 17.4286H3.19329C3.3509 16.868 3.6407 16.3484 4.04674 15.9213C4.68834 15.2464 5.56966 14.8571 6.5 14.8571C7.43034 14.8571 8.31166 15.2464 8.95326 15.9213C9.3593 16.3484 9.6491 16.868 9.80671 17.4286H13.4444V4.28571C13.4444 4.19406 13.4094 4.11571 13.3617 4.06556C13.3157 4.01714 13.2643 4 13.2222 4H2.22222ZM14.1933 19.4286H9.80671C9.6491 19.9892 9.3593 20.5087 8.95326 20.9358C8.31166 21.6108 7.43034 22 6.5 22C5.56966 22 4.68834 21.6108 4.04674 20.9358C3.6407 20.5087 3.3509 19.9892 3.19329 19.4286H2.22222C1.61604 19.4286 1.04559 19.1748 0.633205 18.741C0.222452 18.3089 0 17.7332 0 17.1429V4.28571C0 3.69539 0.222453 3.11968 0.633205 2.68759C1.04559 2.25378 1.61604 2 2.22222 2H13.2222C13.8284 2 14.3989 2.25378 14.8112 2.68759C15.222 3.11968 15.4444 3.69539 15.4444 4.28571V4.57143H19.761C19.7609 4.57143 19.761 4.57143 19.761 4.57143C20.2022 4.5714 20.6299 4.70625 20.9917 4.95357C21.3528 5.20048 21.631 5.54717 21.7994 5.94609L23.9212 10.968C23.9732 11.0911 24 11.2234 24 11.3571V17.1429C24 17.7332 23.7775 18.3089 23.3668 18.741C22.9544 19.1748 22.384 19.4286 21.7778 19.4286H20.8067C20.6491 19.9892 20.3593 20.5087 19.9533 20.9358C19.3117 21.6108 18.4303 22 17.5 22C16.5697 22 15.6883 21.6108 15.0467 20.9358C14.6407 20.5087 14.3509 19.9892 14.1933 19.4286ZM20.8067 17.4286H21.7778C21.8199 17.4286 21.8712 17.4114 21.9172 17.363C21.9649 17.3129 22 17.2345 22 17.1429V12.3571H15.4444V15.5626C16.031 15.1104 16.7496 14.8571 17.5 14.8571C18.4303 14.8571 19.3117 15.2464 19.9533 15.9213C20.3593 16.3484 20.6491 16.868 20.8067 17.4286ZM15.4444 10.3571H21.4919L19.9571 6.72433C19.9335 6.66857 19.8983 6.62882 19.8629 6.60461C19.8281 6.58084 19.7929 6.57142 19.7612 6.57143H15.4444V10.3571ZM6.5 16.8571C6.13372 16.8571 5.77154 17.0097 5.49629 17.2993C5.21941 17.5905 5.05556 17.9959 5.05556 18.4286C5.05556 18.8612 5.21941 19.2666 5.49629 19.5579C5.77154 19.8474 6.13372 20 6.5 20C6.86628 20 7.22846 19.8474 7.50371 19.5579C7.78059 19.2666 7.94444 18.8612 7.94444 18.4286C7.94444 17.9959 7.78059 17.5905 7.50371 17.2993C7.22846 17.0097 6.86628 16.8571 6.5 16.8571ZM17.5 16.8571C17.1337 16.8571 16.7715 17.0097 16.4963 17.2993C16.2194 17.5905 16.0556 17.9959 16.0556 18.4286C16.0556 18.8612 16.2194 19.2666 16.4963 19.5579C16.7715 19.8474 17.1337 20 17.5 20C17.8663 20 18.2285 19.8474 18.5037 19.5579C18.7806 19.2666 18.9444 18.8612 18.9444 18.4286C18.9444 17.9959 18.7806 17.5905 18.5037 17.2993C18.2285 17.0097 17.8663 16.8571 17.5 16.8571Z" fill="#1E1D21"/>
</g>
</svg>
