<svg width="24" height="24" viewBox="0 0 24 24" fill="none" xmlns="http://www.w3.org/2000/svg">
<g id="icon / tv" clip-path="url(#clip0_1106_4534)">
<path id="Vector (Stroke)" fill-rule="evenodd" clip-rule="evenodd" d="M0 4.22727C0 2.96611 1.04828 2 2.26923 2H21.7308C22.9517 2 24 2.96611 24 4.22727V16.5C24 17.7612 22.9517 18.7273 21.7308 18.7273H14.6923V20H18.7692C19.3215 20 19.7692 20.4477 19.7692 21C19.7692 21.5523 19.3215 22 18.7692 22H5.23077C4.67848 22 4.23077 21.5523 4.23077 21C4.23077 20.4477 4.67848 20 5.23077 20H9.30769V18.7273H2.26923C1.04828 18.7273 0 17.7612 0 16.5V4.22727ZM11.3077 18.7273V20H12.6923V18.7273H11.3077ZM2.5 16.7273C2.31972 16.7273 2 16.7273 2 16.1997V4.5C2 4 2.31972 4 2.5 4H21.5C22 4 22 4.40625 22 4.5V16.2305C22 16.3242 22 16.7273 21.5 16.7273H2.5Z" fill="#1E1D21"/>
</g>
<defs>
<clipPath id="clip0_1106_4534">
<rect width="24" height="24" fill="white"/>
</clipPath>
</defs>
</svg>
