<svg width="25" height="15" viewBox="0 0 25 15" fill="none" xmlns="http://www.w3.org/2000/svg">
<path d="M8.85653 0.909091H10.8381V9.51918C10.8381 10.4354 10.6229 11.2472 10.1925 11.9545C9.76207 12.6577 9.15696 13.2116 8.37713 13.6165C7.5973 14.017 6.68324 14.2173 5.63494 14.2173C4.59091 14.2173 3.67898 14.017 2.89915 13.6165C2.11932 13.2116 1.5142 12.6577 1.08381 11.9545C0.653409 11.2472 0.43821 10.4354 0.43821 9.51918V0.909091H2.41335V9.35938C2.41335 9.9517 2.54332 10.478 2.80327 10.9382C3.06747 11.3984 3.44034 11.7607 3.92188 12.0249C4.40341 12.2848 4.97443 12.4148 5.63494 12.4148C6.29972 12.4148 6.87287 12.2848 7.3544 12.0249C7.8402 11.7607 8.21094 11.3984 8.46662 10.9382C8.72656 10.478 8.85653 9.9517 8.85653 9.35938V0.909091ZM14.8155 14H12.7189L17.4299 0.909091H19.7118L24.4228 14H22.3262L18.6252 3.28693H18.5229L14.8155 14ZM15.1671 8.87358H21.9682V10.5355H15.1671V8.87358Z" fill="#885AFF"/>
</svg>
