<svg width="24" height="24" viewBox="0 0 24 24" fill="none" xmlns="http://www.w3.org/2000/svg">
<g id="icon / wallet">
<path id="Union" fill-rule="evenodd" clip-rule="evenodd" d="M2.35937 4.35813C2.58624 4.12611 2.88908 4 3.2 4H20.8C21.1109 4 21.4138 4.12611 21.6406 4.35813C21.8682 4.59091 22 4.91132 22 5.25V6.5H2V5.25C2 4.91132 2.13176 4.59091 2.35937 4.35813ZM23.0706 2.95989C23.6682 3.57102 24 4.39521 24 5.25V12V18.75C24 19.6048 23.6682 20.429 23.0706 21.0401C22.4723 21.652 21.656 22 20.8 22H3.2C2.34396 22 1.52765 21.652 0.929358 21.0401C0.331808 20.429 0 19.6048 0 18.75V12V5.25C0 4.39521 0.331808 3.57102 0.929358 2.95989C1.52765 2.348 2.34396 2 3.2 2H20.8C21.656 2 22.4723 2.348 23.0706 2.95989ZM2 13V18.75C2 19.0887 2.13176 19.4091 2.35937 19.6419C2.58624 19.8739 2.88908 20 3.2 20H20.8C21.1109 20 21.4138 19.8739 21.6406 19.6419C21.8682 19.4091 22 19.0887 22 18.75V13H16.1646C16.0352 13.4908 15.8027 14.0176 15.4239 14.4959C14.7284 15.3741 13.6076 16 12 16C10.3924 16 9.27161 15.3741 8.57608 14.4959C8.19728 14.0176 7.9648 13.4908 7.83541 13H2ZM22 11H15.3C14.7477 11 14.3 11.4477 14.3 12C14.3 12.3194 14.1857 12.838 13.8561 13.2541C13.5616 13.6259 13.0324 14 12 14C10.9676 14 10.4384 13.6259 10.1439 13.2541C9.81434 12.838 9.7 12.3194 9.7 12C9.7 11.4477 9.25229 11 8.7 11H2V8.5H22V11Z" fill="#1E1D21"/>
</g>
</svg>
