<svg width="24" height="24" viewBox="0 0 24 24" fill="none" xmlns="http://www.w3.org/2000/svg">
<g id="icon / washing machine">
<path id="Union" fill-rule="evenodd" clip-rule="evenodd" d="M5 3C4.73478 3 4.48043 3.10536 4.29289 3.29289C4.10536 3.48043 4 3.73478 4 4V20C4 20.2652 4.10536 20.5196 4.29289 20.7071C4.48043 20.8946 4.73478 21 5 21H19C19.2652 21 19.5196 20.8946 19.7071 20.7071C19.8946 20.5196 20 20.2652 20 20V4C20 3.73478 19.8946 3.48043 19.7071 3.29289C19.5196 3.10536 19.2652 3 19 3H5ZM2.87868 1.87868C3.44129 1.31607 4.20435 1 5 1H19C19.7957 1 20.5587 1.31607 21.1213 1.87868C21.6839 2.44129 22 3.20435 22 4V20C22 20.7957 21.6839 21.5587 21.1213 22.1213C20.5587 22.6839 19.7957 23 19 23H5C4.20435 23 3.44129 22.6839 2.87868 22.1213C2.31607 21.5587 2 20.7957 2 20V4C2 3.20435 2.31607 2.44129 2.87868 1.87868ZM18.6827 4.25906C19.0913 4.63057 19.1214 5.26302 18.7499 5.67168L18.7399 5.68268C18.3684 6.09133 17.736 6.12145 17.3273 5.74994C16.9187 5.37843 16.8886 4.74598 17.2601 4.33732L17.2701 4.32632C17.6416 3.91767 18.274 3.88755 18.6827 4.25906ZM7.75736 8.75736C8.88258 7.63214 10.4087 7 12 7C13.5913 7 15.1174 7.63214 16.2426 8.75736C17.3679 9.88258 18 11.4087 18 13C18 14.5913 17.3679 16.1174 16.2426 17.2426C15.1174 18.3679 13.5913 19 12 19C10.4087 19 8.88258 18.3679 7.75736 17.2426C6.63214 16.1174 6 14.5913 6 13C6 11.4087 6.63214 9.88258 7.75736 8.75736ZM12 9C10.9391 9 9.92172 9.42143 9.17157 10.1716C8.42143 10.9217 8 11.9391 8 13C8 14.0609 8.42143 15.0783 9.17157 15.8284C9.92172 16.5786 10.9391 17 12 17C13.0609 17 14.0783 16.5786 14.8284 15.8284C15.5786 15.0783 16 14.0609 16 13C16 11.9391 15.5786 10.9217 14.8284 10.1716C14.0783 9.42143 13.0609 9 12 9ZM11 13C11 12.4477 10.5523 12 10 12C9.44772 12 9 12.4477 9 13C9 13.7956 9.31607 14.5587 9.87868 15.1213C10.4413 15.6839 11.2044 16 12 16C12.5523 16 13 15.5523 13 15C13 14.4477 12.5523 14 12 14C11.7348 14 11.4804 13.8946 11.2929 13.7071C11.1054 13.5196 11 13.2652 11 13Z" fill="#1E1D21"/>
</g>
</svg>
