<svg width="16" height="22" viewBox="0 0 16 22" fill="none" xmlns="http://www.w3.org/2000/svg">
<g id="Group 8">
<path id="Vector (Stroke)" fill-rule="evenodd" clip-rule="evenodd" d="M8 7C8.55228 7 9 7.44772 9 8V10.6512L10.6931 12.2792C11.0912 12.6619 11.1036 13.295 10.7208 13.6931C10.3381 14.0912 9.70502 14.1036 9.30691 13.7208L7.30691 11.7978C7.11082 11.6093 7 11.349 7 11.077V8C7 7.44772 7.44772 7 8 7Z" fill="#1E1D21"/>
<path id="Vector" d="M13 4.5L12.9142 4.132C12.5646 2.631 12.3909 1.88 11.8163 1.44C11.2439 1 10.438 1 8.82732 1H7.17268C5.56096 1 4.7551 1 4.18263 1.44C3.60806 1.88 3.43433 2.63 3.08373 4.132L3 4.5M13 17.5L12.9142 17.868C12.5646 19.369 12.3909 20.12 11.8163 20.56C11.2428 21 10.4369 21 8.82732 21H7.17268C5.56201 21 4.7572 21 4.18367 20.56C3.60911 20.12 3.43537 19.37 3.08477 17.868L3.00105 17.5" stroke="#1E1D21" stroke-width="2"/>
<path id="Vector (Stroke)_2" fill-rule="evenodd" clip-rule="evenodd" d="M7.92427 3H8.06838C9.65623 2.99997 10.9488 2.99994 11.9682 3.13705C13.0275 3.27952 13.9391 3.58621 14.6667 4.3093C15.409 5.02095 15.7145 5.94911 15.8558 7.00722C15.9927 8.03254 15.9927 9.33773 15.9926 10.9287V11C15.9926 11.3484 15.9947 11.6829 15.9966 12.0034C16.0036 13.1445 16.0095 14.1087 15.9184 14.8962C15.7931 15.9788 15.4733 16.8837 14.6755 17.6819C13.9465 18.4113 13.0318 18.7199 11.9682 18.863C10.9488 19.0001 9.65624 19 8.06839 19H7.92425C6.33641 19 5.04382 19.0001 4.02442 18.863C2.96085 18.7199 2.04618 18.4113 1.31717 17.6819C0.588238 16.9526 0.279903 16.0377 0.136965 14.9738C-5.51045e-05 13.954 -2.99522e-05 12.6608 9.2302e-07 11.072V10.928C-2.99522e-05 9.33923 -5.51045e-05 8.04605 0.136965 7.02622C0.279903 5.96234 0.588238 5.0474 1.31717 4.31808C2.04618 3.58869 2.96085 3.2801 4.02442 3.13705C5.04382 2.99994 6.33642 2.99997 7.92427 3ZM4.29101 5.1192C3.44934 5.23241 3.02721 5.43631 2.73176 5.73192C2.43623 6.02761 2.23233 6.45017 2.11915 7.29254C2.00212 8.16359 2 9.32175 2 11C2 12.6783 2.00212 13.8364 2.11915 14.7075C2.23233 15.5498 2.43623 15.9724 2.73176 16.2681C3.02721 16.5637 3.44934 16.7676 4.29101 16.8808C5.16149 16.9979 6.31891 17 7.99632 17C9.67374 17 10.8312 16.9979 11.7016 16.8808C12.5433 16.7676 12.9654 16.5637 13.2609 16.2681C13.6486 15.8801 13.8411 15.449 13.9316 14.6663C14.0075 14.0106 14.003 13.2148 13.9967 12.1088C13.9947 11.7699 13.9926 11.402 13.9926 11C13.9926 9.3205 13.9906 8.14937 13.8734 7.27193C13.7591 6.4163 13.5543 6.01161 13.2788 5.74938L13.2697 5.74076L13.2609 5.73192C12.9654 5.43631 12.5433 5.23241 11.7016 5.1192C10.8312 5.00213 9.67374 5 7.99632 5C6.31891 5 5.16149 5.00213 4.29101 5.1192Z" fill="#1E1D21"/>
</g>
</svg>
